<mxfile host="app.diagrams.net" modified="2021-05-13T09:09:21.069Z" agent="5.0 (Macintosh; Intel Mac OS X 10_15_7) AppleWebKit/537.36 (KHTML, like Gecko) Chrome/89.0.4389.90 Safari/537.36" etag="NSfbLsoxbGP6SO2qhENG" version="14.6.12" type="github">
  <diagram id="QqeCBafmmbMTONHjs0Rj" name="Page-1">
    <mxGraphModel dx="1298" dy="809" grid="1" gridSize="10" guides="1" tooltips="1" connect="1" arrows="1" fold="1" page="1" pageScale="1" pageWidth="827" pageHeight="1169" math="0" shadow="0">
      <root>
        <mxCell id="0" />
        <mxCell id="1" parent="0" />
        <mxCell id="34triwndPU9WmGOFYF3j-3" style="edgeStyle=orthogonalEdgeStyle;rounded=0;orthogonalLoop=1;jettySize=auto;html=1;entryX=0.5;entryY=0;entryDx=0;entryDy=0;labelBorderColor=none;" edge="1" parent="1" source="34triwndPU9WmGOFYF3j-4" target="34triwndPU9WmGOFYF3j-6">
          <mxGeometry relative="1" as="geometry" />
        </mxCell>
        <mxCell id="34triwndPU9WmGOFYF3j-4" value="Activity启动" style="rounded=1;whiteSpace=wrap;html=1;fillColor=#FFFFCC;labelBorderColor=none;strokeColor=none;" vertex="1" parent="1">
          <mxGeometry x="320" y="60" width="120" height="60" as="geometry" />
        </mxCell>
        <mxCell id="34triwndPU9WmGOFYF3j-5" style="edgeStyle=orthogonalEdgeStyle;rounded=1;orthogonalLoop=1;jettySize=auto;html=1;labelBorderColor=none;dashed=1;" edge="1" parent="1" source="34triwndPU9WmGOFYF3j-6" target="34triwndPU9WmGOFYF3j-8">
          <mxGeometry relative="1" as="geometry" />
        </mxCell>
        <mxCell id="34triwndPU9WmGOFYF3j-6" value="onCreate()" style="rounded=0;whiteSpace=wrap;html=1;fillColor=#CCE5FF;labelBorderColor=none;strokeColor=none;" vertex="1" parent="1">
          <mxGeometry x="320" y="160" width="120" height="60" as="geometry" />
        </mxCell>
        <mxCell id="34triwndPU9WmGOFYF3j-7" style="edgeStyle=orthogonalEdgeStyle;rounded=1;orthogonalLoop=1;jettySize=auto;html=1;entryX=0.5;entryY=0;entryDx=0;entryDy=0;labelBorderColor=none;dashed=1;" edge="1" parent="1" source="34triwndPU9WmGOFYF3j-8" target="34triwndPU9WmGOFYF3j-10">
          <mxGeometry relative="1" as="geometry" />
        </mxCell>
        <mxCell id="34triwndPU9WmGOFYF3j-8" value="onStart()" style="rounded=0;whiteSpace=wrap;html=1;fillColor=#99CCFF;labelBorderColor=none;strokeColor=none;" vertex="1" parent="1">
          <mxGeometry x="320" y="260" width="120" height="60" as="geometry" />
        </mxCell>
        <mxCell id="34triwndPU9WmGOFYF3j-9" style="edgeStyle=orthogonalEdgeStyle;rounded=1;orthogonalLoop=1;jettySize=auto;html=1;labelBorderColor=none;dashed=1;" edge="1" parent="1" source="34triwndPU9WmGOFYF3j-10" target="34triwndPU9WmGOFYF3j-22">
          <mxGeometry relative="1" as="geometry" />
        </mxCell>
        <mxCell id="34triwndPU9WmGOFYF3j-10" value="onResume()" style="rounded=0;whiteSpace=wrap;html=1;fillColor=#66B2FF;labelBorderColor=none;strokeColor=none;" vertex="1" parent="1">
          <mxGeometry x="320" y="360" width="120" height="60" as="geometry" />
        </mxCell>
        <mxCell id="34triwndPU9WmGOFYF3j-11" style="edgeStyle=orthogonalEdgeStyle;rounded=1;orthogonalLoop=1;jettySize=auto;html=1;labelBorderColor=none;dashed=1;" edge="1" parent="1" source="34triwndPU9WmGOFYF3j-13" target="34triwndPU9WmGOFYF3j-20">
          <mxGeometry relative="1" as="geometry" />
        </mxCell>
        <mxCell id="34triwndPU9WmGOFYF3j-12" value="用户等了一会再返回原来的Activity" style="edgeStyle=orthogonalEdgeStyle;rounded=1;orthogonalLoop=1;jettySize=auto;html=1;entryX=0.5;entryY=1;entryDx=0;entryDy=0;labelBorderColor=none;dashed=1;" edge="1" parent="1" source="34triwndPU9WmGOFYF3j-13">
          <mxGeometry relative="1" as="geometry">
            <Array as="points">
              <mxPoint x="640" y="680" />
            </Array>
            <mxPoint x="450" y="680" as="sourcePoint" />
            <mxPoint x="640.0000000000002" y="320" as="targetPoint" />
          </mxGeometry>
        </mxCell>
        <mxCell id="34triwndPU9WmGOFYF3j-13" value="onStop()" style="rounded=0;whiteSpace=wrap;html=1;fillColor=#99CCFF;labelBorderColor=none;strokeColor=none;" vertex="1" parent="1">
          <mxGeometry x="320" y="650" width="120" height="60" as="geometry" />
        </mxCell>
        <mxCell id="34triwndPU9WmGOFYF3j-14" style="edgeStyle=orthogonalEdgeStyle;rounded=1;orthogonalLoop=1;jettySize=auto;html=1;labelBorderColor=none;dashed=1;" edge="1" parent="1" source="34triwndPU9WmGOFYF3j-16" target="34triwndPU9WmGOFYF3j-13">
          <mxGeometry relative="1" as="geometry" />
        </mxCell>
        <mxCell id="34triwndPU9WmGOFYF3j-15" value="用户光速返回原来的Activity" style="edgeStyle=orthogonalEdgeStyle;rounded=1;orthogonalLoop=1;jettySize=auto;html=1;entryX=1;entryY=0.5;entryDx=0;entryDy=0;labelBorderColor=none;dashed=1;" edge="1" parent="1" source="34triwndPU9WmGOFYF3j-16" target="34triwndPU9WmGOFYF3j-10">
          <mxGeometry relative="1" as="geometry">
            <Array as="points">
              <mxPoint x="540" y="585" />
              <mxPoint x="540" y="390" />
            </Array>
          </mxGeometry>
        </mxCell>
        <mxCell id="34triwndPU9WmGOFYF3j-16" value="onPause()" style="rounded=0;whiteSpace=wrap;html=1;fillColor=#66B2FF;labelBorderColor=none;strokeColor=none;" vertex="1" parent="1">
          <mxGeometry x="320" y="555" width="120" height="60" as="geometry" />
        </mxCell>
        <mxCell id="34triwndPU9WmGOFYF3j-17" style="edgeStyle=orthogonalEdgeStyle;rounded=1;orthogonalLoop=1;jettySize=auto;html=1;labelBorderColor=none;dashed=1;" edge="1" parent="1" source="34triwndPU9WmGOFYF3j-20" target="34triwndPU9WmGOFYF3j-25">
          <mxGeometry relative="1" as="geometry" />
        </mxCell>
        <mxCell id="34triwndPU9WmGOFYF3j-18" value="高优先级的进程抢占了内存" style="edgeStyle=orthogonalEdgeStyle;rounded=1;orthogonalLoop=1;jettySize=auto;html=1;labelBorderColor=none;dashed=1;" edge="1" parent="1" source="34triwndPU9WmGOFYF3j-20" target="34triwndPU9WmGOFYF3j-27">
          <mxGeometry relative="1" as="geometry" />
        </mxCell>
        <mxCell id="34triwndPU9WmGOFYF3j-19" value="" style="edgeLabel;html=1;align=center;verticalAlign=middle;resizable=0;points=[];labelBorderColor=none;" vertex="1" connectable="0" parent="34triwndPU9WmGOFYF3j-18">
          <mxGeometry x="0.4285" relative="1" as="geometry">
            <mxPoint as="offset" />
          </mxGeometry>
        </mxCell>
        <mxCell id="34triwndPU9WmGOFYF3j-20" value="onDestroy()" style="rounded=0;whiteSpace=wrap;html=1;fillColor=#CCE5FF;labelBorderColor=none;strokeColor=none;" vertex="1" parent="1">
          <mxGeometry x="320" y="750" width="120" height="60" as="geometry" />
        </mxCell>
        <mxCell id="34triwndPU9WmGOFYF3j-21" value="打开新的Activity" style="edgeStyle=orthogonalEdgeStyle;rounded=1;orthogonalLoop=1;jettySize=auto;html=1;labelBorderColor=none;dashed=1;" edge="1" parent="1" source="34triwndPU9WmGOFYF3j-22" target="34triwndPU9WmGOFYF3j-16">
          <mxGeometry relative="1" as="geometry" />
        </mxCell>
        <mxCell id="34triwndPU9WmGOFYF3j-22" value="Running" style="rounded=0;whiteSpace=wrap;html=1;fillColor=#3399FF;labelBorderColor=none;strokeColor=none;" vertex="1" parent="1">
          <mxGeometry x="320" y="450" width="120" height="60" as="geometry" />
        </mxCell>
        <mxCell id="34triwndPU9WmGOFYF3j-23" style="edgeStyle=orthogonalEdgeStyle;rounded=1;orthogonalLoop=1;jettySize=auto;html=1;entryX=1;entryY=0.5;entryDx=0;entryDy=0;labelBorderColor=none;dashed=1;" edge="1" parent="1" source="34triwndPU9WmGOFYF3j-24" target="34triwndPU9WmGOFYF3j-8">
          <mxGeometry relative="1" as="geometry" />
        </mxCell>
        <mxCell id="34triwndPU9WmGOFYF3j-24" value="onRestart()" style="rounded=0;whiteSpace=wrap;html=1;fillColor=#FFCCCC;labelBorderColor=none;strokeColor=none;" vertex="1" parent="1">
          <mxGeometry x="580" y="260" width="120" height="60" as="geometry" />
        </mxCell>
        <mxCell id="34triwndPU9WmGOFYF3j-25" value="Activity销毁" style="rounded=1;whiteSpace=wrap;html=1;fillColor=#FFFFCC;labelBorderColor=none;strokeColor=none;" vertex="1" parent="1">
          <mxGeometry x="320" y="840" width="120" height="60" as="geometry" />
        </mxCell>
        <mxCell id="34triwndPU9WmGOFYF3j-26" value="用户重新打开原来的Activity" style="edgeStyle=orthogonalEdgeStyle;rounded=1;orthogonalLoop=1;jettySize=auto;html=1;entryX=0;entryY=0.5;entryDx=0;entryDy=0;labelBorderColor=none;dashed=1;" edge="1" parent="1" source="34triwndPU9WmGOFYF3j-27" target="34triwndPU9WmGOFYF3j-8">
          <mxGeometry relative="1" as="geometry">
            <Array as="points">
              <mxPoint x="160" y="290" />
            </Array>
          </mxGeometry>
        </mxCell>
        <mxCell id="34triwndPU9WmGOFYF3j-27" value="应用被杀死" style="rounded=0;whiteSpace=wrap;html=1;fillColor=#FFE6CC;labelBorderColor=none;strokeColor=none;" vertex="1" parent="1">
          <mxGeometry x="100" y="500" width="120" height="60" as="geometry" />
        </mxCell>
        <mxCell id="34triwndPU9WmGOFYF3j-28" value="" style="rounded=0;whiteSpace=wrap;html=1;fillColor=#99CCFF;strokeColor=none;" vertex="1" parent="1">
          <mxGeometry x="40" y="150" width="20" height="20" as="geometry" />
        </mxCell>
        <mxCell id="34triwndPU9WmGOFYF3j-29" value="" style="rounded=0;whiteSpace=wrap;html=1;fillColor=#66B2FF;strokeColor=none;" vertex="1" parent="1">
          <mxGeometry x="40" y="180" width="20" height="20" as="geometry" />
        </mxCell>
        <mxCell id="34triwndPU9WmGOFYF3j-30" value="" style="rounded=0;whiteSpace=wrap;html=1;fillColor=#007FFF;strokeColor=none;" vertex="1" parent="1">
          <mxGeometry x="40" y="210" width="20" height="20" as="geometry" />
        </mxCell>
        <mxCell id="34triwndPU9WmGOFYF3j-31" value="用户不可见" style="text;html=1;strokeColor=none;fillColor=none;align=center;verticalAlign=middle;whiteSpace=wrap;rounded=0;" vertex="1" parent="1">
          <mxGeometry x="60" y="150" width="80" height="20" as="geometry" />
        </mxCell>
        <mxCell id="34triwndPU9WmGOFYF3j-32" value="用户可见，但不可交互" style="text;html=1;strokeColor=none;fillColor=none;align=center;verticalAlign=middle;whiteSpace=wrap;rounded=0;" vertex="1" parent="1">
          <mxGeometry x="70" y="180" width="130" height="20" as="geometry" />
        </mxCell>
        <mxCell id="34triwndPU9WmGOFYF3j-33" value="用户可见，可交互" style="text;html=1;strokeColor=none;fillColor=none;align=center;verticalAlign=middle;whiteSpace=wrap;rounded=0;" vertex="1" parent="1">
          <mxGeometry x="70" y="210" width="100" height="20" as="geometry" />
        </mxCell>
      </root>
    </mxGraphModel>
  </diagram>
</mxfile>
